<svg xmlns="http://www.w3.org/2000/svg" width="960" height="520" viewBox="0 0 960 520">
  <rect width="100%" height="100%" fill="#f8fafc" />
  <text x="90" y="26" font-size="22" font-weight="700" fill="#0f172a">Projected Served Tokens Through 2028</text>
  <text x="24" y="260.0" transform="rotate(-90 24 260.0)" font-size="13" fill="#334155">Quadrillion tokens per month</text>
  <line x1="90" y1="480" x2="930" y2="480" stroke="#475569" stroke-width="1.5" />
  <line x1="90" y1="40" x2="90" y2="480" stroke="#475569" stroke-width="1.5" />
  <line x1="90" y1="480.0" x2="930" y2="480.0" stroke="#d7dde5" stroke-width="1" /> <line x1="90" y1="392.0" x2="930" y2="392.0" stroke="#d7dde5" stroke-width="1" /> <line x1="90" y1="304.0" x2="930" y2="304.0" stroke="#d7dde5" stroke-width="1" /> <line x1="90" y1="216.0" x2="930" y2="216.0" stroke="#d7dde5" stroke-width="1" /> <line x1="90" y1="128.0" x2="930" y2="128.0" stroke="#d7dde5" stroke-width="1" /> <line x1="90" y1="40.0" x2="930" y2="40.0" stroke="#d7dde5" stroke-width="1" />
  <text x="78" y="484.0" text-anchor="end" font-size="12" fill="#334155">0.0</text> <text x="78" y="396.0" text-anchor="end" font-size="12" fill="#334155">23.3</text> <text x="78" y="308.0" text-anchor="end" font-size="12" fill="#334155">46.7</text> <text x="78" y="220.0" text-anchor="end" font-size="12" fill="#334155">70.0</text> <text x="78" y="132.0" text-anchor="end" font-size="12" fill="#334155">93.4</text> <text x="78" y="44.0" text-anchor="end" font-size="12" fill="#334155">116.7</text>
  <path d="M 90.0 473.3 L 115.5 472.8 L 140.9 472.2 L 166.4 471.6 L 191.8 471.0 L 217.3 470.4 L 242.7 469.7 L 268.2 469.0 L 293.6 468.2 L 319.1 467.4 L 344.5 466.5 L 370.0 465.6 L 395.5 464.7 L 420.9 463.8 L 446.4 462.9 L 471.8 461.9 L 497.3 460.8 L 522.7 459.7 L 548.2 458.6 L 573.6 457.5 L 599.1 456.3 L 624.5 455.0 L 650.0 453.7 L 675.5 452.3 L 700.9 450.9 L 726.4 449.5 L 751.8 448.0 L 777.3 446.4 L 802.7 444.8 L 828.2 443.1 L 853.6 441.3 L 879.1 439.5 L 904.5 437.6 L 930.0 435.6" fill="none" stroke="#2563eb" stroke-width="3" /> <path d="M 90.0 472.1 L 115.5 471.3 L 140.9 470.5 L 166.4 469.5 L 191.8 468.4 L 217.3 467.3 L 242.7 466.0 L 268.2 464.6 L 293.6 463.1 L 319.1 461.4 L 344.5 459.5 L 370.0 457.5 L 395.5 455.2 L 420.9 452.8 L 446.4 450.0 L 471.8 447.0 L 497.3 443.7 L 522.7 440.1 L 548.2 436.1 L 573.6 431.7 L 599.1 426.9 L 624.5 421.6 L 650.0 415.8 L 675.5 409.3 L 700.9 402.3 L 726.4 394.5 L 751.8 385.9 L 777.3 376.5 L 802.7 367.9 L 828.2 359.8 L 853.6 351.2 L 879.1 342.1 L 904.5 332.5 L 930.0 322.2" fill="none" stroke="#f59e0b" stroke-width="3" /> <path d="M 90.0 471.0 L 115.5 469.8 L 140.9 468.5 L 166.4 467.0 L 191.8 465.3 L 217.3 463.4 L 242.7 461.2 L 268.2 458.8 L 293.6 456.0 L 319.1 452.9 L 344.5 449.4 L 370.0 445.4 L 395.5 440.9 L 420.9 435.8 L 446.4 430.0 L 471.8 423.5 L 497.3 416.2 L 522.7 407.9 L 548.2 398.5 L 573.6 387.9 L 599.1 376.0 L 624.5 362.4 L 650.0 347.2 L 675.5 329.9 L 700.9 310.4 L 726.4 288.3 L 751.8 263.4 L 777.3 235.3 L 802.7 203.4 L 828.2 167.5 L 853.6 137.6 L 879.1 107.5 L 904.5 75.0 L 930.0 40.0" fill="none" stroke="#dc2626" stroke-width="3" />
  <text x="90.0" y="506.0" text-anchor="middle" font-size="12" fill="#334155">2026-03-01</text> <text x="370.0" y="506.0" text-anchor="middle" font-size="12" fill="#334155">2027-02-01</text> <text x="650.0" y="506.0" text-anchor="middle" font-size="12" fill="#334155">2028-01-01</text> <text x="930.0" y="506.0" text-anchor="middle" font-size="12" fill="#334155">2028-12-01</text>
  <line x1="690" y1="26" x2="714" y2="26" stroke="#2563eb" stroke-width="3" /> <text x="722" y="30" font-size="12" fill="#0f172a">conservative</text> <line x1="690" y1="46" x2="714" y2="46" stroke="#f59e0b" stroke-width="3" /> <text x="722" y="50" font-size="12" fill="#0f172a">base</text> <line x1="690" y1="66" x2="714" y2="66" stroke="#dc2626" stroke-width="3" /> <text x="722" y="70" font-size="12" fill="#0f172a">factory_race</text>
</svg>
