<svg xmlns="http://www.w3.org/2000/svg" width="960" height="520" viewBox="0 0 960 520">
  <rect width="100%" height="100%" fill="#f8fafc" />
  <text x="90" y="26" font-size="22" font-weight="700" fill="#0f172a">Projected Buildout Constraint Through 2028</text>
  <text x="24" y="260.0" transform="rotate(-90 24 260.0)" font-size="13" fill="#334155">Gigawatt-equivalent buildout</text>
  <line x1="90" y1="480" x2="930" y2="480" stroke="#475569" stroke-width="1.5" />
  <line x1="90" y1="40" x2="90" y2="480" stroke="#475569" stroke-width="1.5" />
  <line x1="90" y1="480.0" x2="930" y2="480.0" stroke="#d7dde5" stroke-width="1" /> <line x1="90" y1="392.0" x2="930" y2="392.0" stroke="#d7dde5" stroke-width="1" /> <line x1="90" y1="304.0" x2="930" y2="304.0" stroke="#d7dde5" stroke-width="1" /> <line x1="90" y1="216.0" x2="930" y2="216.0" stroke="#d7dde5" stroke-width="1" /> <line x1="90" y1="128.0" x2="930" y2="128.0" stroke="#d7dde5" stroke-width="1" /> <line x1="90" y1="40.0" x2="930" y2="40.0" stroke="#d7dde5" stroke-width="1" />
  <text x="78" y="484.0" text-anchor="end" font-size="12" fill="#334155">0.0</text> <text x="78" y="396.0" text-anchor="end" font-size="12" fill="#334155">2.0</text> <text x="78" y="308.0" text-anchor="end" font-size="12" fill="#334155">4.0</text> <text x="78" y="220.0" text-anchor="end" font-size="12" fill="#334155">6.0</text> <text x="78" y="132.0" text-anchor="end" font-size="12" fill="#334155">8.0</text> <text x="78" y="44.0" text-anchor="end" font-size="12" fill="#334155">10.0</text>
  <path d="M 90.0 427.2 L 115.5 424.1 L 140.9 421.1 L 166.4 418.0 L 191.8 414.9 L 217.3 411.9 L 242.7 408.8 L 268.2 405.7 L 293.6 402.6 L 319.1 399.6 L 344.5 396.5 L 370.0 393.5 L 395.5 390.4 L 420.9 387.3 L 446.4 384.3 L 471.8 381.2 L 497.3 378.1 L 522.7 375.1 L 548.2 372.0 L 573.6 368.9 L 599.1 365.9 L 624.5 362.8 L 650.0 359.7 L 675.5 356.7 L 700.9 353.6 L 726.4 350.6 L 751.8 347.5 L 777.3 344.4 L 802.7 341.3 L 828.2 338.3 L 853.6 335.2 L 879.1 332.1 L 904.5 329.1 L 930.0 326.0" fill="none" stroke="#2563eb" stroke-width="3" /> <path d="M 90.0 414.0 L 115.5 408.0 L 140.9 402.0 L 166.4 396.0 L 191.8 390.0 L 217.3 384.0 L 242.7 378.0 L 268.2 372.0 L 293.6 366.0 L 319.1 360.0 L 344.5 354.0 L 370.0 348.0 L 395.5 342.0 L 420.9 336.0 L 446.4 330.0 L 471.8 324.0 L 497.3 318.0 L 522.7 312.0 L 548.2 306.0 L 573.6 300.0 L 599.1 294.0 L 624.5 288.0 L 650.0 282.0 L 675.5 276.0 L 700.9 270.0 L 726.4 264.0 L 751.8 258.0 L 777.3 252.0 L 802.7 246.0 L 828.2 240.0 L 853.6 234.0 L 879.1 228.0 L 904.5 222.0 L 930.0 216.0" fill="none" stroke="#f59e0b" stroke-width="3" /> <path d="M 90.0 400.8 L 115.5 389.9 L 140.9 378.9 L 166.4 368.0 L 191.8 357.1 L 217.3 346.2 L 242.7 335.2 L 268.2 324.3 L 293.6 313.3 L 319.1 302.4 L 344.5 291.5 L 370.0 280.5 L 395.5 269.6 L 420.9 258.7 L 446.4 247.7 L 471.8 236.8 L 497.3 225.9 L 522.7 214.9 L 548.2 204.0 L 573.6 193.1 L 599.1 182.1 L 624.5 171.2 L 650.0 160.3 L 675.5 149.3 L 700.9 138.4 L 726.4 127.5 L 751.8 116.5 L 777.3 105.6 L 802.7 94.6 L 828.2 83.7 L 853.6 72.8 L 879.1 61.9 L 904.5 50.9 L 930.0 40.0" fill="none" stroke="#dc2626" stroke-width="3" />
  <text x="90.0" y="506.0" text-anchor="middle" font-size="12" fill="#334155">2026-03-01</text> <text x="370.0" y="506.0" text-anchor="middle" font-size="12" fill="#334155">2027-02-01</text> <text x="650.0" y="506.0" text-anchor="middle" font-size="12" fill="#334155">2028-01-01</text> <text x="930.0" y="506.0" text-anchor="middle" font-size="12" fill="#334155">2028-12-01</text>
  <line x1="690" y1="26" x2="714" y2="26" stroke="#2563eb" stroke-width="3" /> <text x="722" y="30" font-size="12" fill="#0f172a">conservative</text> <line x1="690" y1="46" x2="714" y2="46" stroke="#f59e0b" stroke-width="3" /> <text x="722" y="50" font-size="12" fill="#0f172a">base</text> <line x1="690" y1="66" x2="714" y2="66" stroke="#dc2626" stroke-width="3" /> <text x="722" y="70" font-size="12" fill="#0f172a">factory_race</text>
</svg>
