<svg xmlns="http://www.w3.org/2000/svg" width="1600" height="980" viewBox="0 0 1600 980">
  <defs>
    <linearGradient id="bg" x1="0" y1="0" x2="1" y2="1">
      <stop offset="0%" stop-color="#071019" />
      <stop offset="100%" stop-color="#0f1724" />
    </linearGradient>
    <linearGradient id="card" x1="0" y1="0" x2="0" y2="1">
      <stop offset="0%" stop-color="#111827" />
      <stop offset="100%" stop-color="#0b1220" />
    </linearGradient>
    <linearGradient id="tile" x1="0" y1="0" x2="1" y2="1">
      <stop offset="0%" stop-color="#f9d37a" />
      <stop offset="100%" stop-color="#8c6a2a" />
    </linearGradient>
    <style>
      .title { font: 700 42px ui-sans-serif, -apple-system, BlinkMacSystemFont, "Segoe UI", sans-serif; fill: #f8fafc; }
      .subtitle { font: 500 19px ui-sans-serif, -apple-system, BlinkMacSystemFont, "Segoe UI", sans-serif; fill: #a5b4c7; }
      .era { font: 700 28px ui-sans-serif, -apple-system, BlinkMacSystemFont, "Segoe UI", sans-serif; fill: #f8fafc; }
      .row { font: 700 20px ui-sans-serif, -apple-system, BlinkMacSystemFont, "Segoe UI", sans-serif; fill: #9fb1c6; letter-spacing: 1px; }
      .small { font: 500 14px ui-sans-serif, -apple-system, BlinkMacSystemFont, "Segoe UI", sans-serif; fill: #aab8c8; }
      .boxTitle { font: 700 18px ui-sans-serif, -apple-system, BlinkMacSystemFont, "Segoe UI", sans-serif; fill: #f8fafc; }
      .boxText { font: 500 15px ui-sans-serif, -apple-system, BlinkMacSystemFont, "Segoe UI", sans-serif; fill: #dbe5ef; }
      .note { font: 500 16px ui-sans-serif, -apple-system, BlinkMacSystemFont, "Segoe UI", sans-serif; fill: #8dd7d0; }
      .foot { font: 500 14px ui-sans-serif, -apple-system, BlinkMacSystemFont, "Segoe UI", sans-serif; fill: #7c8da3; }
    </style>
  </defs>

  <rect width="1600" height="980" fill="url(#bg)" />

  <text x="110" y="84" class="title">NVIDIA AI Factory Architecture Roadmap</text>
  <text x="110" y="118" class="subtitle">Simplified study redraw from public NVIDIA roadmap material. Cleaned for readability and stripped of stage context.</text>
  <text x="110" y="156" class="subtitle">The key idea: one platform story across compute, CPU, scale-up fabric, scale-out networking, and system packaging.</text>

  <text x="48" y="286" class="row">COMPUTE</text>
  <text x="68" y="396" class="row">CPU</text>
  <text x="26" y="526" class="row">SCALE-UP</text>
  <text x="18" y="556" class="row">NVLINK / NVSWITCH</text>
  <text x="22" y="706" class="row">SCALE-OUT</text>
  <text x="43" y="736" class="row">NETWORKING</text>
  <text x="56" y="876" class="row">SYSTEM</text>

  <rect x="150" y="200" rx="28" ry="28" width="390" height="660" fill="url(#card)" stroke="#94a3b8" stroke-width="2.2" />
  <rect x="604" y="200" rx="28" ry="28" width="390" height="660" fill="url(#card)" stroke="#94a3b8" stroke-width="2.2" />
  <rect x="1058" y="200" rx="28" ry="28" width="390" height="660" fill="url(#card)" stroke="#94a3b8" stroke-width="2.2" />

  <text x="330" y="175" text-anchor="middle" class="era">Blackwell</text>
  <text x="799" y="175" text-anchor="middle" class="era">Rubin</text>
  <text x="1253" y="175" text-anchor="middle" class="era">Feynman</text>

  <text x="330" y="895" text-anchor="middle" class="small">2025 to 2026 platform era</text>
  <text x="799" y="895" text-anchor="middle" class="small">2026 to 2027 platform era</text>
  <text x="1253" y="895" text-anchor="middle" class="small">2028 roadmap horizon</text>

  <rect x="182" y="242" rx="18" ry="18" width="150" height="78" fill="#162032" stroke="#3c4b63" />
  <rect x="198" y="256" width="44" height="44" rx="8" fill="url(#tile)" />
  <text x="256" y="276" class="boxTitle">Blackwell</text>
  <text x="256" y="298" class="boxText">8S HBM3e</text>

  <rect x="352" y="242" rx="18" ry="18" width="156" height="78" fill="#162032" stroke="#3c4b63" />
  <rect x="368" y="256" width="44" height="44" rx="8" fill="url(#tile)" />
  <text x="426" y="276" class="boxTitle">Blackwell Ultra</text>
  <text x="426" y="298" class="boxText">8S HBM3e</text>

  <rect x="182" y="350" rx="18" ry="18" width="180" height="70" fill="#131d2e" stroke="#3c4b63" />
  <rect x="198" y="364" width="34" height="34" rx="7" fill="#6f7786" />
  <text x="246" y="386" class="boxTitle">Grace CPU</text>

  <rect x="182" y="470" rx="18" ry="18" width="165" height="96" fill="#131d2e" stroke="#3c4b63" />
  <rect x="198" y="486" width="42" height="42" rx="8" fill="url(#tile)" />
  <text x="256" y="506" class="boxTitle">NVLink 5 Switch</text>
  <text x="256" y="528" class="boxText">1800 GB/s</text>
  <text x="256" y="548" class="boxText">NVL72 class</text>

  <rect x="182" y="650" rx="18" ry="18" width="150" height="86" fill="#131d2e" stroke="#3c4b63" />
  <text x="202" y="683" class="boxTitle">Spectrum5</text>
  <text x="202" y="708" class="boxText">51T</text>

  <rect x="352" y="650" rx="18" ry="18" width="150" height="86" fill="#131d2e" stroke="#3c4b63" />
  <text x="372" y="683" class="boxTitle">ConnectX-8</text>
  <text x="372" y="708" class="boxText">800G</text>

  <rect x="182" y="770" rx="18" ry="18" width="320" height="62" fill="#0f1a29" stroke="#47627d" />
  <text x="342" y="797" text-anchor="middle" class="boxTitle">Oberon NVL72</text>
  <text x="342" y="819" text-anchor="middle" class="boxText">Liquid-cooled integrated system</text>

  <rect x="636" y="242" rx="18" ry="18" width="142" height="78" fill="#162032" stroke="#3c4b63" />
  <rect x="652" y="256" width="44" height="44" rx="8" fill="url(#tile)" />
  <text x="710" y="276" class="boxTitle">Rubin</text>
  <text x="710" y="298" class="boxText">8S HBM4</text>

  <rect x="800" y="242" rx="18" ry="18" width="162" height="78" fill="#162032" stroke="#3c4b63" />
  <rect x="816" y="256" width="44" height="44" rx="8" fill="url(#tile)" />
  <text x="874" y="276" class="boxTitle">Rubin Ultra</text>
  <text x="874" y="298" class="boxText">16S HBM4e</text>

  <rect x="636" y="350" rx="18" ry="18" width="180" height="70" fill="#131d2e" stroke="#3c4b63" />
  <rect x="652" y="364" width="34" height="34" rx="7" fill="#6f7786" />
  <text x="700" y="386" class="boxTitle">Vera CPU</text>

  <rect x="636" y="470" rx="18" ry="18" width="150" height="96" fill="#131d2e" stroke="#3c4b63" />
  <rect x="652" y="486" width="42" height="42" rx="8" fill="url(#tile)" />
  <text x="710" y="506" class="boxTitle">NVLink 6 Switch</text>
  <text x="710" y="528" class="boxText">3600 GB/s</text>
  <text x="710" y="548" class="boxText">scale-up fabric</text>

  <rect x="806" y="470" rx="18" ry="18" width="156" height="96" fill="#131d2e" stroke="#3c4b63" />
  <rect x="822" y="486" width="42" height="42" rx="8" fill="url(#tile)" />
  <text x="880" y="506" class="boxTitle">NVLink 7 Switch</text>
  <text x="880" y="528" class="boxText">3600 GB/s</text>
  <text x="880" y="548" class="boxText">higher-domain scale</text>

  <rect x="636" y="650" rx="18" ry="18" width="150" height="86" fill="#131d2e" stroke="#3c4b63" />
  <text x="656" y="683" class="boxTitle">Spectrum6</text>
  <text x="656" y="708" class="boxText">102T, CPO</text>

  <rect x="806" y="650" rx="18" ry="18" width="150" height="86" fill="#131d2e" stroke="#3c4b63" />
  <text x="826" y="683" class="boxTitle">ConnectX-9</text>
  <text x="826" y="708" class="boxText">1600G</text>

  <rect x="636" y="770" rx="18" ry="18" width="326" height="62" fill="#0f1a29" stroke="#47627d" />
  <text x="799" y="797" text-anchor="middle" class="boxTitle">Kyber NVL576</text>
  <text x="799" y="819" text-anchor="middle" class="boxText">Liquid-cooled rack-scale system</text>

  <rect x="1090" y="242" rx="18" ry="18" width="226" height="78" fill="#162032" stroke="#3c4b63" />
  <rect x="1106" y="256" width="44" height="44" rx="8" fill="url(#tile)" />
  <text x="1164" y="276" class="boxTitle">Feynman</text>
  <text x="1164" y="298" class="boxText">next-gen HBM</text>
  <text x="1330" y="298" text-anchor="end" class="note">roadmap-only</text>

  <rect x="1090" y="350" rx="18" ry="18" width="180" height="70" fill="#131d2e" stroke="#3c4b63" />
  <rect x="1106" y="364" width="34" height="34" rx="7" fill="#6f7786" />
  <text x="1154" y="386" class="boxTitle">Vera CPU</text>

  <rect x="1090" y="470" rx="18" ry="18" width="180" height="96" fill="#131d2e" stroke="#3c4b63" />
  <rect x="1106" y="486" width="42" height="42" rx="8" fill="url(#tile)" />
  <text x="1164" y="506" class="boxTitle">NVLink 8 Switch</text>
  <text x="1164" y="528" class="boxText">NVL-next direction</text>
  <text x="1164" y="548" class="boxText">future scale-up fabric</text>

  <rect x="1090" y="650" rx="18" ry="18" width="150" height="86" fill="#131d2e" stroke="#3c4b63" />
  <text x="1110" y="683" class="boxTitle">Spectrum7</text>
  <text x="1110" y="708" class="boxText">204T, CPO</text>

  <rect x="1260" y="650" rx="18" ry="18" width="150" height="86" fill="#131d2e" stroke="#3c4b63" />
  <text x="1280" y="683" class="boxTitle">ConnectX-10</text>
  <text x="1280" y="708" class="boxText">future scale-out</text>

  <rect x="1090" y="770" rx="18" ry="18" width="320" height="62" fill="#0f1a29" stroke="#47627d" />
  <text x="1250" y="797" text-anchor="middle" class="boxTitle">Gigawatt AI factory trajectory</text>
  <text x="1250" y="819" text-anchor="middle" class="boxText">System shape still evolving publicly</text>

  <path d="M 152 930 H 1446" stroke="#6b7f95" stroke-width="2" />
  <circle cx="272" cy="930" r="5" fill="#f9d37a" />
  <circle cx="726" cy="930" r="5" fill="#f9d37a" />
  <circle cx="1180" cy="930" r="5" fill="#f9d37a" />
  <text x="258" y="956" class="small">2025</text>
  <text x="712" y="956" class="small">2026-2027</text>
  <text x="1154" y="956" class="small">2028</text>

  <text x="110" y="934" class="foot">Interpretation note: this redraw is a study asset. It preserves the public roadmap logic but simplifies the original keynote-style slide.</text>
</svg>
