<svg xmlns="http://www.w3.org/2000/svg" width="960" height="520" viewBox="0 0 960 520">
  <rect width="100%" height="100%" fill="#f8fafc" />
  <text x="90" y="26" font-size="22" font-weight="700" fill="#0f172a">Observed Monthly Token Anchors</text>
  <text x="24" y="260.0" transform="rotate(-90 24 260.0)" font-size="13" fill="#334155">Quadrillion tokens per month</text>
  <line x1="90" y1="480" x2="930" y2="480" stroke="#475569" stroke-width="1.5" />
  <line x1="90" y1="40" x2="90" y2="480" stroke="#475569" stroke-width="1.5" />
  <line x1="90" y1="480.0" x2="930" y2="480.0" stroke="#d7dde5" stroke-width="1" /> <line x1="90" y1="392.0" x2="930" y2="392.0" stroke="#d7dde5" stroke-width="1" /> <line x1="90" y1="304.0" x2="930" y2="304.0" stroke="#d7dde5" stroke-width="1" /> <line x1="90" y1="216.0" x2="930" y2="216.0" stroke="#d7dde5" stroke-width="1" /> <line x1="90" y1="128.0" x2="930" y2="128.0" stroke="#d7dde5" stroke-width="1" /> <line x1="90" y1="40.0" x2="930" y2="40.0" stroke="#d7dde5" stroke-width="1" />
  <text x="78" y="484.0" text-anchor="end" font-size="12" fill="#334155">0.0</text> <text x="78" y="396.0" text-anchor="end" font-size="12" fill="#334155">0.3</text> <text x="78" y="308.0" text-anchor="end" font-size="12" fill="#334155">0.5</text> <text x="78" y="220.0" text-anchor="end" font-size="12" fill="#334155">0.8</text> <text x="78" y="132.0" text-anchor="end" font-size="12" fill="#334155">1.0</text> <text x="78" y="44.0" text-anchor="end" font-size="12" fill="#334155">1.3</text>
  <path d="M 90.0 317.5 L 510.0 148.3 L 930.0 40.0" fill="none" stroke="#0f766e" stroke-width="3" />
  <text x="90.0" y="506.0" text-anchor="middle" font-size="12" fill="#334155">2025-05</text> <text x="510.0" y="506.0" text-anchor="middle" font-size="12" fill="#334155">2025-07</text> <text x="930.0" y="506.0" text-anchor="middle" font-size="12" fill="#334155">2025-10</text>
  <line x1="690" y1="26" x2="714" y2="26" stroke="#0f766e" stroke-width="3" /> <text x="722" y="30" font-size="12" fill="#0f172a">public token datapoints</text>
</svg>
